<svg height="25" viewBox="0 0 15 25" width="15" xmlns="http://www.w3.org/2000/svg"><path d="m9.20643375 11.8500271h3.08868715c.1104569 0 .2.0895431.2.2 0 .0422158-.0133583.0833489-.038162.1175094l-6.27327498 8.6397766c-.06489862.0893807-.18996671.1092273-.27934739.0443287-.06023266-.0437345-.09119407-.1173009-.0803614-.1909442l1.09177304-7.4221498c.04018716-.2732025-.14870909-.527255-.42191159-.5674422-.0240931-.003544-.04841292-.0053231-.07276529-.0053231h-3.43752997c-.11045695 0-.2-.0895431-.2-.2 0-.0434255.01413386-.0856712.04026598-.1203538l6.51187593-8.64258443c.06646958-.08821866.19186918-.10584977.28008784-.03938019.05760001.04339953.08737325.11444888.07792098.18594667l-.9829453 7.43508475c-.03619212.2737604.156395.5250265.43015537.5612186.02172576.0028723.04361684.004313.06553163.004313zm-8.18112232 1.8706478h4.30157601l-1.29363734 10.7280324c-.03305908.2741564.16238888.5232037.43654524.5562628.17877513.0215576.3553329-.0546797.46222792-.1995891l9.92846774-13.4592632c.1639264-.2222224.1166681-.5352577-.1055543-.699184-.0859681-.063416-.1899873-.0976309-.2968148-.0976309h-4.3241061l1.1593031-9.77350707c.0325272-.27421998-.1634036-.52288764-.4376236-.55541477-.1735483-.02058576-.3452503.05093669-.4528632.18864016l-9.7714883 12.50377468c-.1700369.2175823-.13149372.5318098.08608859.7018467.08791998.0687079.1962963.1060323.30787904.1060323z" fill="#c0ccda" fill-rule="evenodd"/></svg>