<svg height="56" viewBox="0 0 58 56" width="58" xmlns="http://www.w3.org/2000/svg"><g fill="none" fill-rule="evenodd"><path d="m11.6129032.45854689h40.3870968c3.3137085 0 6 2.6862915 6 6v24.70965141c0 3.3137085-2.6862915 6-6 6h-7.4035316v12.6802453l-17.462091-12.6802453h-15.5214742c-3.31370847 0-5.99999997-2.6862915-5.99999997-6v-24.70965141c0-3.3137085 2.6862915-6 5.99999997-6z" fill="#124f36"/><path d="m6 5.91545611h40.3870968c3.3137085 0 6 2.6862915 6 5.99999999v24.7096514c0 3.3137085-2.6862915 6-6 6h-7.4035316v12.6802453l-17.4620911-12.6802453h-15.5214741c-3.3137085 0-6-2.6862915-6-6v-24.7096514c0-3.31370849 2.6862915-5.99999999 6-5.99999999z" fill="#2a7556"/><path d="m20.7955 20.344h-2.992v3.04h-2.176v-3.04h-2.992v-2.064h2.992v-3.056h2.176v3.056h2.992zm7.005-4.082c-.1813342-1.1786726-.7819949-1.768-1.802-1.768-.7933373 0-1.3713315.3484965-1.734 1.0455s-.5213335 1.7878259-.476 3.2725c.1813343-.5440027.5354974-.9774984 1.0625-1.3005s1.1418298-.4845 1.8445-.4845c1.1560058 0 2.0654967.3484965 2.7285 1.0455s.9945 1.6858269.9945 2.9665c0 .7933373-.1586651 1.4959969-.476 2.108s-.7904968 1.0936649-1.4195 1.445c-.6290031.3513351-1.3911622.527-2.2865.527-1.745342 0-2.9466634-.5411613-3.604-1.6235s-.986-2.5754905-.986-4.4795c0-2.1873443.3541631-3.8079947 1.0625-4.862s1.8558254-1.581 3.4425-1.581c1.2126727 0 2.1419968.3456632 2.788 1.037s1.0143329 1.5753279 1.105 2.652zm-3.808 4.607c0 .6346698.1841648 1.1588313.5525 1.5725s.9094964.6205 1.6235.6205c.6120031 0 1.0993315-.1813315 1.462-.544s.544-.8669968.544-1.513c0-.6800034-.1841648-1.2013315-.5525-1.564s-.8641635-.544-1.4875-.544c-.5893363 0-1.0936646.1699983-1.513.51s-.629.8273302-.629 1.462zm7.475-1.972c0-4.0573536 1.5299847-6.086 4.59-6.086 1.6206748 0 2.7879964.5439946 3.502 1.632s1.071 2.5726573 1.071 4.454c0 1.8926761-.3569964 3.3829946-1.071 4.471s-1.8813252 1.632-3.502 1.632c-3.0600153 0-4.59-2.034313-4.59-6.103zm6.8 0c0-1.2240061-.1501652-2.1674967-.4505-2.8305s-.886829-.9945-1.7595-.9945c-.8840044 0-1.4761652.3314967-1.7765.9945s-.4505 1.6064939-.4505 2.8305c0 1.2353395.1501652 2.1844967.4505 2.8475s.8924956.9945 1.7765.9945c.872671 0 1.4591652-.3314967 1.7595-.9945s.4505-1.6121605.4505-2.8475zm-22.9124999 9.123v6.98h-1.4v-4.87l-1.79 4.87h-1.22l-1.79000003-4.85v4.85h-1.41v-6.98h1.71l2.12000003 5.25 2.08-5.25zm2.0899999-.08v7.06h-1.41v-7.06zm6.66 7.06h-1.41l-3.16-4.8v4.8h-1.41v-7.06h1.41l3.16 4.84v-4.84h1.41zm2.04-7.06v4.14c0 .5533361.1216655.968332.365 1.245.2433346.276668.5949977.415 1.055.415.4533356 0 .8016655-.138332 1.045-.415.2433346-.276668.365-.6916639.365-1.245v-4.14h1.4v4.14c0 .6533366-.1216654 1.2049978-.365 1.655-.2433345.4500023-.5799978.7849989-1.01 1.005-.4300021.2200011-.9183306.33-1.465.33-.8466709 0-1.5233308-.2533308-2.03-.76s-.76-1.2499951-.76-2.23v-4.14zm9.67 0v1.12h-1.95v5.94h-1.41v-5.94h-1.94v-1.12zm1.59 1.12v1.83h2.5v1.08h-2.5v1.9h2.8v1.13h-4.21v-7.06h4.21v1.12zm8.0899999 4.01c0 .3600018-.0899991.6916651-.27.995-.1800009.3033348-.4466649.5466658-.8.73s-.7833308.275-1.29.275c-.5000025 0-.9466647-.0849991-1.34-.255s-.7083321-.4149984-.945-.735c-.2366678-.3200016-.3716665-.6933312-.405-1.12h1.5c.0333335.2866681.1483324.524999.345.715.1966677.1900009.4583317.285.785.285.2933348 0 .5183326-.0783325.675-.235.1566675-.1566674.235-.3583321.235-.605 0-.2200011-.0633327-.401666-.19-.545s-.2866657-.2583329-.48-.345-.4599983-.1866661-.8-.3c-.4400022-.1466674-.7999986-.2916659-1.08-.435s-.5183323-.3516653-.715-.625c-.1966676-.2733347-.295-.6299978-.295-1.07 0-.6066697.2183312-1.0849982.655-1.435.4366689-.3500018 1.0149964-.525 1.735-.525.7466704 0 1.3416645.1799982 1.785.54.4433356.3600018.6949997.839997.755 1.44h-1.52c-.0400002-.2533346-.1466658-.4616658-.32-.625s-.4099985-.245-.71-.245c-.2600013 0-.4699992.0683327-.63.205-.1600008.1366674-.24.3349987-.24.595 0 .2066677.0616661.3783326.185.515.123334.1366674.2799991.2483329.47.335.190001.0866671.4483317.1833328.775.29.4533356.1600008.8216653.3099993 1.105.45.2833348.1400007.524999.3499986.725.63s.3.6466644.3 1.1z" fill="#6bf6bf"/></g></svg>